<svg id="Layer_1" data-name="Layer 1" xmlns="http://www.w3.org/2000/svg" width="861.56" height="861.55" viewBox="0 0 861.56 861.55"><path d="M908.22,440.37,700.56,232.7l-90.51,90.51L781,494.11,610.05,665l90.5,90.5L908.22,547.85A76.07,76.07,0,0,0,908.22,440.37ZM499.73,212.9l90.52-90.51L553.41,85.55a76.1,76.1,0,0,0-107.48,0L91.11,440.37a76.09,76.09,0,0,0,0,107.48L445.93,902.67a76.1,76.1,0,0,0,107.48,0l36.83-36.84-90.5-90.5-.07.06L218.39,494.11,499.67,212.84Z" transform="translate(-68.89 -63.34)"/><rect x="381.33" y="376.1" width="236.02" height="236.02" transform="translate(-272.02 434.47) rotate(-45)"/><path d="M540.52,488.74,519.76,468,510.7,477l17.09,17.09L510.7,511.21l9.05,9.05,20.77-20.77A7.6,7.6,0,0,0,540.52,488.74ZM499.67,466l9.05-9.05L505,453.26a7.62,7.62,0,0,0-10.75,0l-35.48,35.48a7.62,7.62,0,0,0,0,10.75L494.29,535A7.62,7.62,0,0,0,505,535l3.68-3.68-9.05-9h0l-28.13-28.12L499.67,466Z" transform="translate(-68.89 -63.34)"/><rect x="487.83" y="482.31" width="23.6" height="23.6" transform="translate(-271.94 434.68) rotate(-45)"/></svg>