<svg id="Layer_1" data-name="Layer 1" xmlns="http://www.w3.org/2000/svg" width="1000" height="1000" viewBox="0 0 1000 1000"><path d="M540.52,488.74,519.76,468,510.7,477l17.09,17.09L510.7,511.21l9.05,9.05,20.77-20.77A7.6,7.6,0,0,0,540.52,488.74ZM499.67,466l9.05-9.05L505,453.26a7.62,7.62,0,0,0-10.75,0l-35.48,35.48a7.62,7.62,0,0,0,0,10.75L494.29,535A7.62,7.62,0,0,0,505,535l3.68-3.68-9.05-9h0l-28.13-28.12L499.67,466Z"/><rect x="487.83" y="482.31" width="23.6" height="23.6" transform="translate(-203.05 498.02) rotate(-45)"/></svg>
